<?xml version="1.0" encoding="UTF-8" standalone="no"?>
<svg width="20px" height="20px" viewBox="0 0 20 20" version="1.1" xmlns="http://www.w3.org/2000/svg" xmlns:xlink="http://www.w3.org/1999/xlink" xmlns:sketch="http://www.bohemiancoding.com/sketch/ns">
    <!-- Generator: Sketch 3.5.2 (25235) - http://www.bohemiancoding.com/sketch -->
    <title>Shape</title>
    <desc>Created with Sketch.</desc>
    <defs></defs>
    <g id="Web" stroke="none" stroke-width="1" fill="none" fill-rule="evenodd" sketch:type="MSPage">
        <g id="landing-Page" sketch:type="MSArtboardGroup" transform="translate(-956.000000, -1142.000000)" fill="#757575">
            <g id="Footer" sketch:type="MSLayerGroup" transform="translate(0.000000, 1000.000000)">
                <g id="Find-us-on-:-" transform="translate(866.000000, 142.000000)" sketch:type="MSShapeGroup">
                    <path d="M108,0 L92,0 C90.9,0 90,0.9 90,2 L90,18 C90,19.1 90.9,20 92,20 L108,20 C109.1,20 110,19.1 110,18 L110,2 C110,0.9 109.1,0 108,0 L108,0 Z M107,2 L107,5 L105,5 C104.4,5 104,5.4 104,6 L104,8 L107,8 L107,11 L104,11 L104,18 L101,18 L101,11 L99,11 L99,8 L101,8 L101,5.5 C101,3.6 102.6,2 104.5,2 L107,2 L107,2 Z" id="Shape"></path>
                </g>
            </g>
        </g>
    </g>
</svg>