<?xml version="1.0" encoding="UTF-8" standalone="no"?>
<svg width="20px" height="20px" viewBox="0 0 20 20" version="1.1" xmlns="http://www.w3.org/2000/svg" xmlns:xlink="http://www.w3.org/1999/xlink" xmlns:sketch="http://www.bohemiancoding.com/sketch/ns">
    <!-- Generator: Sketch 3.5.2 (25235) - http://www.bohemiancoding.com/sketch -->
    <title>Shape</title>
    <desc>Created with Sketch.</desc>
    <defs></defs>
    <g id="Web" stroke="none" stroke-width="1" fill="none" fill-rule="evenodd" sketch:type="MSPage">
        <g id="landing-Page" sketch:type="MSArtboardGroup" transform="translate(-996.000000, -1142.000000)" fill="#757575">
            <g id="Footer" sketch:type="MSLayerGroup" transform="translate(0.000000, 1000.000000)">
                <g id="Find-us-on-:-" transform="translate(866.000000, 142.000000)" sketch:type="MSShapeGroup">
                    <path d="M139.2,6.9 C139.2,5.9 138.6,3.9 137.1,3.9 C136.5,3.9 135.8,4.3 135.8,5.6 C135.8,6.8 136.4,8.5 137.8,8.5 C137.8,8.5 139.2,8.4 139.2,6.9 L139.2,6.9 Z M138.6,11.8 L138.3,11.8 L138.3,11.8 C138,11.8 137.1,11.9 136.5,12.1 C135.8,12.3 135,12.8 135,13.8 C135,14.9 136,16 138,16 C139.5,16 140.4,15 140.4,14 C140.4,13.3 139.9,12.8 138.6,11.8 L138.6,11.8 Z M148,0 L132,0 C130.9,0 130,0.9 130,2 L130,18 C130,19.1 130.9,20 132,20 L148,20 C149.1,20 150,19.1 150,18 L150,2 C150,0.9 149.1,0 148,0 L148,0 Z M137.1,17.2 C134.3,17.2 133,15.6 133,14.2 C133,13.7 133.1,12.6 134.5,11.8 C135.3,11.3 136.3,11 137.6,10.9 C137.4,10.7 137.3,10.4 137.3,9.9 C137.3,9.7 137.3,9.6 137.4,9.4 L137,9.4 C135,9.4 133.8,7.9 133.8,6.4 C133.8,4.7 135.1,2.8 137.9,2.8 L142.1,2.8 L141.8,3.1 L141.1,3.8 L141,3.9 L140.3,3.9 C140.7,4.3 141.2,5 141.2,6.1 C141.2,7.5 140.5,8.2 139.6,8.8 C139.4,8.9 139.2,9.2 139.2,9.5 C139.2,9.8 139.4,10 139.6,10.1 C139.7,10.2 139.9,10.3 140.1,10.4 C140.9,11 142,11.7 142,13.3 C142,15.1 140.7,17.2 137.1,17.2 L137.1,17.2 Z M147,10 L145,10 L145,12 L144,12 L144,10 L142,10 L142,9 L144,9 L144,7 L145,7 L145,9 L147,9 L147,10 L147,10 Z" id="Shape"></path>
                </g>
            </g>
        </g>
    </g>
</svg>