<?xml version="1.0" encoding="UTF-8" standalone="no"?>
<svg width="90px" height="32px" viewBox="0 0 90 32" version="1.1" xmlns="http://www.w3.org/2000/svg" xmlns:xlink="http://www.w3.org/1999/xlink" xmlns:sketch="http://www.bohemiancoding.com/sketch/ns">
    <!-- Generator: Sketch 3.5.2 (25235) - http://www.bohemiancoding.com/sketch -->
    <title>Rectangle 171 Copy + Imported Layers</title>
    <desc>Created with Sketch.</desc>
    <defs></defs>
    <g id="Web" stroke="none" stroke-width="1" fill="none" fill-rule="evenodd" sketch:type="MSPage">
        <g id="landing-Page" sketch:type="MSArtboardGroup" transform="translate(-379.000000, -16.000000)" fill="#FFFFFF">
            <g id="Rectangle-171-Copy-+-Imported-Layers" sketch:type="MSLayerGroup" transform="translate(379.000000, 16.000000)">
                <path d="M10.443564,0.127324266 C10.4144639,0.07507327 10.3753606,0.0330322388 10.3308011,0 L8.48506668,8.84903649 C9.29592882,9.09527681 9.88550896,9.84240599 9.88550896,10.7261685 C9.88550896,11.8102265 8.99825906,12.6891844 7.90397407,12.6891844 C6.80938597,12.6891844 5.92213607,11.8102265 5.92213607,10.7261685 C5.92213607,9.64181022 6.80938597,8.76285237 7.90397407,8.76285237 C7.9276179,8.76285237 7.95065548,8.76555501 7.97429931,8.76645589 L9.79396489,0.0414404451 L0.929347164,7.61393105 C0.843562496,7.68720256 0.792637323,7.79260543 0.78899981,7.90491504 L0.000265870628,31.5845259 C-0.014587305,32.026257 0.597121031,32.1640915 0.776571643,31.7592964 L5.63780385,20.7970976 C5.69145715,20.6760794 5.8014919,20.5889945 5.93244235,20.5640701 L13.3932834,19.142783 C13.5496965,19.113054 13.6739781,18.9950388 13.7109595,18.841589 L15.8101073,10.1270838 C15.8322355,10.0345936 15.8213229,9.93849978 15.7779759,9.85321655 C15.2347741,8.78927816 11.4426674,1.93208568 10.443564,0.127324266 Z" id="Rectangle-171-Copy" sketch:type="MSShapeGroup"></path>
                <g id="Imported-Layers" transform="translate(26.000000, 8.000000)" sketch:type="MSShapeGroup">
                    <path d="M29.09836,10.0944877 L22.8818877,10.0944877 L22.8818877,10.1337678 C22.8818877,11.2527589 23.3492073,12.2740408 24.8890719,12.2740408 C26.1165779,12.2740408 27.8508748,12.1758406 28.630553,12.0972804 L28.6895162,12.0972804 C28.9034404,12.0972804 29.0593761,12.1954806 29.0593761,12.411521 L29.0593761,13.9036728 C29.0593761,14.2179134 28.9814083,14.3553936 28.6505323,14.4339538 C27.4025598,14.7481944 26.3504814,14.9053146 24.6546811,14.9053146 C22.2966417,14.9053146 19.7631746,13.6483523 19.7631746,9.85880729 L19.7631746,8.48400474 C19.7631746,5.32244987 21.5949312,3.31965716 24.6936651,3.31965716 C27.8898587,3.31965716 29.5076911,5.51885024 29.5076911,8.48400474 L29.5076911,9.62312685 C29.5076911,9.9177274 29.3517554,10.0944877 29.09836,10.0944877 L29.09836,10.0944877 Z M26.4284492,8.05192394 C26.4284492,6.59905224 25.7657227,5.87237089 24.6741731,5.87237089 C23.6021155,5.87237089 22.8818877,6.61869228 22.8818877,8.05192394 L22.8818877,8.13097508 L26.4284492,8.13097508 L26.4284492,8.05192394 Z M58.465709,14.9053146 C55.3084993,14.9053146 53.5742024,12.922162 53.5742024,9.79988718 L53.5742024,8.42508463 C53.5742024,5.30280984 55.3084993,3.31965716 58.465709,3.31965716 C61.6229187,3.31965716 63.3377236,5.30280984 63.3377236,8.42508463 L63.3377236,9.79988718 C63.3377236,12.922162 61.6229187,14.9053146 58.465709,14.9053146 Z M60.2000058,8.42508463 C60.2000058,6.83473268 59.5957552,6.02949118 58.465709,6.02949118 C57.3351755,6.02949118 56.7114329,6.83473268 56.7114329,8.42508463 L56.7114329,9.79988718 C56.7114329,11.3902391 57.3351755,12.2151207 58.465709,12.2151207 C59.5957552,12.2151207 60.2000058,11.3902391 60.2000058,9.79988718 L60.2000058,8.42508463 Z M5.03048736,0.181997789 C3.62755377,0.181997789 2.10571924,0.280197971 1.11162944,0.437318262 C0.507378784,0.535518445 0.271526107,0.712278772 0.271526107,1.37954901 L0.271526107,14.2378809 C0.271526107,14.4136592 0.431360153,14.5437744 0.600940177,14.5044944 C1.23199228,14.3586671 2.56621672,14.0311695 3.03109989,13.9167663 C3.12904697,13.8927072 3.19531963,13.8048181 3.19531963,13.7031809 L3.19531963,10.0138 C3.19531963,9.88859479 3.2976524,9.78843061 3.42142632,9.79383162 C3.91067444,9.81445366 4.57778666,9.84293171 4.97883367,9.84293171 C7.88264794,9.84293171 10.9921023,8.76322071 10.9921023,5.09102489 L10.9921023,4.91426457 C10.9921023,1.22291972 7.97328553,0.181997789 5.03048736,0.181997789 Z M7.5810099,5.09102489 C7.5810099,6.42654737 6.66488793,7.07466857 4.93010378,7.07466857 C4.742981,7.07466857 3.93211559,7.05944755 3.40485816,7.04275352 C3.28693182,7.03882551 3.19531963,6.94160733 3.19531963,6.82278511 L3.19531963,3.23896946 C3.19531963,3.12162024 3.28498263,3.02538406 3.40144707,3.02096505 C3.91798392,3.00034302 4.69181461,2.97039196 4.93010378,2.97039196 C6.56694085,2.97039196 7.5810099,3.52031298 7.5810099,4.91426457 L7.5810099,5.09102489 Z M18.6394633,3.32014816 C17.7140826,3.33291418 16.5903713,3.6658128 16.1128184,4.26237891 L16.1128184,3.86957818 C16.1128184,3.63144274 15.919848,3.43700638 15.683508,3.43700638 L13.2138771,3.43700638 C12.9322183,3.43700638 12.7017259,3.66924981 12.7017259,3.95304833 L12.7017259,14.3161136 C12.7017259,14.3868177 12.7811557,14.4918919 12.8898233,14.5115319 L16.0104856,13.7588275 C16.0704234,13.7445885 16.1128184,13.6905784 16.1128184,13.6282213 L16.1128184,6.63833231 C16.6001173,6.24553159 17.5406042,5.89201093 18.4952228,5.89201093 L18.6511585,5.89201093 C18.8265861,5.89201093 19.0366119,5.75453067 19.0366119,5.57777035 L19.0366119,3.71245789 C19.0366119,3.49248948 18.8577732,3.31671115 18.6394633,3.32014816 Z M35.6471702,3.31965716 C34.1930702,3.32604017 32.7838017,3.5592656 31.6883538,3.8302981 C31.1625582,3.94813832 31.2190849,4.08561858 31.2190849,4.39936816 L31.2190849,19.5354532 C31.2190849,19.7063216 31.3798935,19.8305448 31.543626,19.7863547 L33.9523445,19.1333235 C34.0649106,19.1028814 34.1428784,19.0002622 34.1428784,18.882913 L34.1428784,15.0668539 C34.1428784,14.9107157 34.2778602,14.7894384 34.4318467,14.8100605 C34.8631062,14.8665256 35.3465067,14.9053146 35.6637383,14.9053146 C38.9569044,14.9053146 40.4777644,12.961442 40.4777644,9.87844732 L40.4777644,8.19922421 C40.4777644,5.52277824 38.3039239,3.30787314 35.6471702,3.31965716 Z M37.5539709,9.87844732 C37.5539709,11.2527589 37.1641317,12.2936808 35.7802028,12.2936808 C35.3815923,12.2936808 34.8270461,12.2509637 34.370447,12.2018636 C34.2398509,12.1876246 34.1428784,12.0756764 34.1428784,11.9435972 L34.1428784,6.27891965 C34.1428784,6.1478224 34.2388763,6.0353832 34.3680105,6.02114417 C34.7783162,5.97646309 35.2909547,5.94847603 35.8513484,5.95093104 C36.7918353,5.95535005 37.5539709,6.72523947 37.5539709,7.67287123 L37.5539709,9.87844732 Z M46.7834124,3.31965716 C45.3293124,3.32604017 43.9200439,3.5592656 42.824596,3.8302981 C42.2988004,3.94813832 42.3553271,4.08561858 42.3553271,4.39936816 L42.3553271,19.5354532 C42.3553271,19.7063216 42.5161358,19.8305448 42.6798682,19.7863547 L45.0885867,19.1333235 C45.2011528,19.1028814 45.2791206,19.0002622 45.2791206,18.882913 L45.2791206,15.0668539 C45.2791206,14.9107157 45.4141024,14.7894384 45.5680889,14.8100605 C45.9998357,14.8665256 46.4832363,14.9053146 46.7999806,14.9053146 C50.093634,14.9053146 51.6140066,12.961442 51.6140066,9.87844732 L51.6140066,8.19922421 C51.6140066,5.52277824 49.4401661,3.30787314 46.7834124,3.31965716 Z M48.6902131,9.87844732 C48.6902131,11.2527589 48.3003739,12.2936808 46.916445,12.2936808 C46.5178345,12.2936808 45.9632883,12.2509637 45.5066892,12.2018636 C45.3760931,12.1876246 45.2791206,12.0756764 45.2791206,11.9435972 L45.2791206,6.27891965 C45.2791206,6.1478224 45.3746312,6.0353832 45.50474,6.02114417 C45.9145584,5.97646309 46.4276842,5.94847603 46.9875906,5.95093104 C47.9280776,5.95535005 48.6902131,6.72523947 48.6902131,7.67287123 L48.6902131,9.87844732 L48.6902131,9.87844732 Z" id="Fill-1"></path>
                </g>
            </g>
        </g>
    </g>
</svg>