<?xml version="1.0" encoding="UTF-8" standalone="no"?>
<svg width="20px" height="20px" viewBox="0 0 20 20" version="1.1" xmlns="http://www.w3.org/2000/svg" xmlns:xlink="http://www.w3.org/1999/xlink" xmlns:sketch="http://www.bohemiancoding.com/sketch/ns">
    <!-- Generator: Sketch 3.5.2 (25235) - http://www.bohemiancoding.com/sketch -->
    <title>Shape</title>
    <desc>Created with Sketch.</desc>
    <defs></defs>
    <g id="Web" stroke="none" stroke-width="1" fill="none" fill-rule="evenodd" sketch:type="MSPage">
        <g id="landing-Page" sketch:type="MSArtboardGroup" transform="translate(-1036.000000, -1142.000000)" fill="#757575">
            <g id="Footer" sketch:type="MSLayerGroup" transform="translate(0.000000, 1000.000000)">
                <g id="Find-us-on-:-" transform="translate(866.000000, 142.000000)" sketch:type="MSShapeGroup">
                    <path d="M188,0 L172,0 C170.9,0 170,0.9 170,2 L170,18 C170,19.1 170.9,20 172,20 L188,20 C189.1,20 190,19.1 190,18 L190,2 C190,0.9 189.1,0 188,0 L188,0 Z M185.7,7.3 C185.6,11.9 182.7,15.1 178.3,15.3 C176.5,15.4 175.2,14.8 174,14.1 C175.3,14.3 177,13.8 177.9,13 C176.6,12.9 175.8,12.2 175.4,11.1 C175.8,11.2 176.2,11.1 176.5,11.1 C175.3,10.7 174.5,10 174.4,8.4 C174.7,8.6 175.1,8.7 175.5,8.7 C174.6,8.2 174,6.3 174.7,5.1 C176,6.5 177.6,7.7 180.2,7.9 C179.5,5.1 183.3,3.6 184.8,5.5 C185.5,5.4 186,5.1 186.5,4.9 C186.3,5.6 185.9,6 185.4,6.4 C185.9,6.3 186.4,6.2 186.8,6 C186.7,6.5 186.2,6.9 185.7,7.3 L185.7,7.3 Z" id="Shape"></path>
                </g>
            </g>
        </g>
    </g>
</svg>