<?xml version="1.0" encoding="UTF-8" standalone="no"?>
<svg width="22px" height="20px" viewBox="0 0 22 20" version="1.1" xmlns="http://www.w3.org/2000/svg" xmlns:xlink="http://www.w3.org/1999/xlink" xmlns:sketch="http://www.bohemiancoding.com/sketch/ns">
    <!-- Generator: Sketch 3.3.3 (12081) - http://www.bohemiancoding.com/sketch -->
    <title>Fill 2</title>
    <desc>Created with Sketch.</desc>
    <defs></defs>
    <g id="Web" stroke="none" stroke-width="1" fill="none" fill-rule="evenodd" sketch:type="MSPage">
        <g id="Quiz" sketch:type="MSArtboardGroup" transform="translate(-267.000000, -103.000000)" fill="#9B9B9B">
            <g id="Bulp" sketch:type="MSLayerGroup" transform="translate(267.000000, 103.000000)">
                <path d="M9.60605939,19.2965266 C9.51147849,19.154427 9.43816977,19.0509034 9.19721482,19.0340289 C8.92228278,19.0147997 8.75677837,18.7725515 8.78311305,18.5312451 C8.80720854,18.3099135 9.03083421,18.1204474 9.30907633,18.1191916 C10.5154575,18.1138545 11.7219359,18.1134228 12.9282684,18.1193878 C13.2253975,18.1208398 13.4478062,18.3265526 13.4550592,18.5703706 C13.4624095,18.8182698 13.2609809,19.0340289 12.9697419,19.0509819 C12.8171371,19.0598509 12.7486474,19.1018803 12.6870701,19.21027 C12.444314,19.6374322 11.9942881,19.8635122 11.4594167,20 L10.777928,20 C10.2866719,19.8741863 9.8580642,19.6750664 9.60605939,19.2965266 Z M8.78788347,15.3439891 C8.73117387,14.3070609 8.22891665,13.4092283 7.72461498,12.510884 C7.29274582,11.7414898 6.8268509,10.9848413 6.58540917,10.1440023 C6.10155215,8.45895685 6.92084767,6.68311354 8.61585623,5.75816939 C10.7667321,4.58444775 13.5014491,5.05322878 14.9507323,6.87110339 C15.9386963,8.11030176 16.0577621,9.45445048 15.3900005,10.8355151 C14.9893825,11.6640345 14.516624,12.4656556 14.0811527,13.2813866 C13.7357352,13.9284383 13.4911294,14.6007684 13.4504348,15.3439891 L8.78788347,15.3439891 Z M11.1069207,17.3437127 C10.5476131,17.3437127 9.98830556,17.3444804 9.42899801,17.3434568 C9.02283071,17.3426892 8.78012336,17.1087632 8.78255725,16.723407 C8.78489378,16.3496167 9.02604344,16.1162536 9.4165365,16.1158954 C10.5513126,16.1147695 11.6861374,16.1147695 12.8209622,16.1158954 C13.211504,16.1162536 13.452751,16.349412 13.4552336,16.7230488 C13.4578135,17.1085585 13.2152035,17.3426892 12.8091336,17.3434568 C12.2417455,17.3444804 11.6743087,17.3437127 11.1069207,17.3437127 Z M18.3333333,4.44166667 L16.9583333,3.06666667 L15.3083333,4.71666667 L16.5916667,6 L18.3333333,4.44166667 Z M11.9166667,0.591666667 L10.0833333,0.591666667 L10.0833333,3.25 L11.9166667,3.25 L11.9166667,0.591666667 Z M18.3333333,11.5 L21.0833333,11.5 L21.0833333,9.66666667 L18.3333333,9.66666667 L18.3333333,11.5 Z M3.66666667,11.5 L3.66666667,9.66666667 L0.916666667,9.66666667 L0.916666667,11.5 L3.66666667,11.5 Z M6.41666667,4.71666667 L4.76666667,3.06666667 L3.48333333,4.35 L5.13333333,6 L6.41666667,4.71666667 Z" id="Fill-2" sketch:type="MSShapeGroup"></path>
            </g>
        </g>
    </g>
</svg>