<?xml version="1.0" encoding="UTF-8" standalone="no"?>
<svg width="16px" height="14px" viewBox="0 0 16 14" version="1.1" xmlns="http://www.w3.org/2000/svg" xmlns:xlink="http://www.w3.org/1999/xlink" xmlns:sketch="http://www.bohemiancoding.com/sketch/ns">
    <!-- Generator: Sketch 3.3.3 (12081) - http://www.bohemiancoding.com/sketch -->
    <title>Shape</title>
    <desc>Created with Sketch.</desc>
    <defs></defs>
    <g id="Web" stroke="none" stroke-width="1" fill="none" fill-rule="evenodd" sketch:type="MSPage">
        <g id="Quiz" sketch:type="MSArtboardGroup" transform="translate(-19.000000, -127.000000)" fill="#00BFA5">
            <g id="side-nav" sketch:type="MSLayerGroup" transform="translate(-7.000000, 0.000000)">
                <g id="Active-tab" transform="translate(7.000000, 115.000000)" sketch:type="MSShapeGroup">
                    <path d="M33.64,13.3222222 L32.36,12 L31,13.3222222 L29.64,12 L28.28,13.3222222 L27,12 L25.64,13.3222222 L24.36,12 L23,13.3222222 L21.64,12 L20.36,13.3222222 L19,12 L19,24.4444444 C19,25.3 19.72,26 20.6,26 L33.4,26 C34.28,26 35,25.3 35,24.4444444 L35,12 L33.64,13.3222222 L33.64,13.3222222 Z M27,24.4444444 L20.6,24.4444444 L20.6,19 L27,19 L27,24.4444444 L27,24.4444444 Z M33.4,24.4444444 L27.8,24.4444444 L27.8,23.6666667 L33.4,23.6666667 L33.4,24.4444444 L33.4,24.4444444 Z M33.4,22.8888889 L27.8,22.8888889 L27.8,22.1111111 L33.4,22.1111111 L33.4,22.8888889 L33.4,22.8888889 Z M33.4,21.3333333 L27.8,21.3333333 L27.8,20.5555556 L33.4,20.5555556 L33.4,21.3333333 L33.4,21.3333333 Z M33.4,19.7777778 L27.8,19.7777778 L27.8,19 L33.4,19 L33.4,19.7777778 L33.4,19.7777778 Z M33.4,18.2222222 L20.6,18.2222222 L20.6,15.8888889 L33.4,15.8888889 L33.4,18.2222222 L33.4,18.2222222 Z" id="Shape"></path>
                </g>
            </g>
        </g>
    </g>
</svg>