<?xml version="1.0" encoding="UTF-8" standalone="no"?>
<svg width="15px" height="15px" viewBox="0 0 15 15" version="1.1" xmlns="http://www.w3.org/2000/svg" xmlns:xlink="http://www.w3.org/1999/xlink" xmlns:sketch="http://www.bohemiancoding.com/sketch/ns">
    <!-- Generator: Sketch 3.5.2 (25235) - http://www.bohemiancoding.com/sketch -->
    <title>Shape</title>
    <desc>Created with Sketch.</desc>
    <defs></defs>
    <g id="Web" stroke="none" stroke-width="1" fill="none" fill-rule="evenodd" sketch:type="MSPage">
        <g id="Login" sketch:type="MSArtboardGroup" transform="translate(-520.000000, -590.000000)" fill="#FFFFFF">
            <g id="Google-Copy" sketch:type="MSLayerGroup" transform="translate(476.000000, 573.000000)">
                <g id="Google-+-Shape" transform="translate(44.000000, 16.000000)" sketch:type="MSShapeGroup">
                    <path d="M12.375,7.25 L12.375,5.375 L11.125,5.375 L11.125,7.25 L9.25,7.25 L9.25,8.5 L11.125,8.5 L11.125,10.375 L12.375,10.375 L12.375,8.5 L14.25,8.5 L14.25,7.25 L12.375,7.25 L12.375,7.25 Z M7.5625,9.375 L6.875,8.875 C6.625,8.6875 6.375,8.4375 6.375,8 C6.375,7.5625 6.6875,7.1875 7,7 C7.8125,6.375 8.625,5.6875 8.625,4.3125 C8.625,3 7.8125,2.25 7.375,1.875 L8.4375,1.875 L9.1875,1 L5.3125,1 C2.5625,1 1.1875,2.75 1.1875,4.625 C1.1875,6.0625 2.3125,7.625 4.3125,7.625 L4.8125,7.625 C4.75,7.8125 4.5625,8.125 4.5625,8.4375 C4.5625,9.0625 4.8125,9.3125 5.125,9.6875 C4.25,9.75 2.625,9.9375 1.4375,10.6875 C0.3125,11.375 8.8817842e-16,12.3125 8.8817842e-16,13 C8.8817842e-16,14.4375 1.3125,15.8125 4.125,15.8125 C7.5,15.8125 9.125,13.9375 9.125,12.125 C9.125,10.8125 8.4375,10.125 7.5625,9.375 L7.5625,9.375 Z M2.8125,3.6875 C2.8125,2.3125 3.625,1.6875 4.5,1.6875 C6.125,1.6875 7,3.875 7,5.125 C7,6.75 5.6875,7.0625 5.1875,7.0625 C3.625,7.0625 2.8125,5.125 2.8125,3.6875 L2.8125,3.6875 Z M5.0625,14.9375 C3,14.9375 1.6875,14 1.6875,12.625 C1.6875,11.25 2.9375,10.8125 3.3125,10.625 C4.125,10.375 5.1875,10.3125 5.375,10.3125 L5.8125,10.3125 C7.3125,11.375 7.9375,11.8125 7.9375,12.8125 C7.9375,14 6.75,14.9375 5.0625,14.9375 L5.0625,14.9375 Z" id="Shape"></path>
                </g>
            </g>
        </g>
    </g>
</svg>