<?xml version="1.0" encoding="UTF-8" standalone="no"?>
<svg width="100px" height="40px" viewBox="0 0 100 40" version="1.1" xmlns="http://www.w3.org/2000/svg" xmlns:xlink="http://www.w3.org/1999/xlink" xmlns:sketch="http://www.bohemiancoding.com/sketch/ns">
    <!-- Generator: Sketch 3.3.3 (12081) - http://www.bohemiancoding.com/sketch -->
    <title>Rectangle 171 Copy + Imported Layers</title>
    <desc>Created with Sketch.</desc>
    <defs>
        <filter x="-50%" y="-50%" width="200%" height="200%" filterUnits="objectBoundingBox" id="filter-1">
            <feOffset dx="0" dy="2" in="SourceAlpha" result="shadowOffsetOuter1"></feOffset>
            <feGaussianBlur stdDeviation="2" in="shadowOffsetOuter1" result="shadowBlurOuter1"></feGaussianBlur>
            <feColorMatrix values="0 0 0 0 0   0 0 0 0 0   0 0 0 0 0  0 0 0 0.09627774 0" in="shadowBlurOuter1" type="matrix" result="shadowMatrixOuter1"></feColorMatrix>
            <feMerge>
                <feMergeNode in="shadowMatrixOuter1"></feMergeNode>
                <feMergeNode in="SourceGraphic"></feMergeNode>
            </feMerge>
        </filter>
        <filter x="-50%" y="-50%" width="200%" height="200%" filterUnits="objectBoundingBox" id="filter-2">
            <feOffset dx="0" dy="2" in="SourceAlpha" result="shadowOffsetOuter1"></feOffset>
            <feGaussianBlur stdDeviation="2" in="shadowOffsetOuter1" result="shadowBlurOuter1"></feGaussianBlur>
            <feColorMatrix values="0 0 0 0 0   0 0 0 0 0   0 0 0 0 0  0 0 0 0.09627774 0" in="shadowBlurOuter1" type="matrix" result="shadowMatrixOuter1"></feColorMatrix>
            <feMerge>
                <feMergeNode in="shadowMatrixOuter1"></feMergeNode>
                <feMergeNode in="SourceGraphic"></feMergeNode>
            </feMerge>
        </filter>
    </defs>
    <g id="Web" stroke="none" stroke-width="1" fill="none" fill-rule="evenodd" sketch:type="MSPage">
        <g id="Quiz" sketch:type="MSArtboardGroup" transform="translate(-75.000000, -14.000000)" fill="#FFFFFF">
            <g id="side-nav" sketch:type="MSLayerGroup" transform="translate(-7.000000, 0.000000)">
                <g id="account-switcher" transform="translate(7.000000, 0.000000)" sketch:type="MSShapeGroup">
                    <g id="Rectangle-171-Copy-+-Imported-Layers" transform="translate(79.000000, 16.000000)">
                        <path d="M56.6666413,18.2898988 L50.3276198,18.2898988 L50.3276198,18.3299532 C50.3276198,19.4710037 50.804152,20.5124187 52.3743729,20.5124187 C53.6260775,20.5124187 55.3945636,20.4122827 56.1896122,20.3321738 L56.2497377,20.3321738 C56.4678792,20.3321738 56.6268889,20.4323099 56.6268889,20.6526092 L56.6268889,22.1741767 C56.6268889,22.4946121 56.547384,22.6348026 56.2099853,22.7149114 C54.9374107,23.0353468 53.864592,23.1955645 52.1353614,23.1955645 C49.7308365,23.1955645 47.1474256,21.9138229 47.1474256,18.0495723 L47.1474256,16.6476674 C47.1474256,13.4237868 49.0152928,11.3815118 52.1751139,11.3815118 C55.434316,11.3815118 57.0840418,13.6240589 57.0840418,16.6476674 L57.0840418,17.8092457 C57.0840418,18.1096539 56.9250321,18.2898988 56.6666413,18.2898988 L56.6666413,18.2898988 Z M53.9440969,16.2070687 C53.9440969,14.7255556 53.2683056,13.9845488 52.1552377,13.9845488 C51.0620459,13.9845488 50.3276198,14.7455828 50.3276198,16.2070687 L50.3276198,16.2876782 L53.9440969,16.2876782 L53.9440969,16.2070687 Z M86.6129271,23.1955645 C83.3934774,23.1955645 81.6249912,21.1733167 81.6249912,17.9894906 L81.6249912,16.5875857 C81.6249912,13.4037596 83.3934774,11.3815118 86.6129271,11.3815118 C89.8323768,11.3815118 91.5809868,13.4037596 91.5809868,16.5875857 L91.5809868,17.9894906 C91.5809868,21.1733167 89.8323768,23.1955645 86.6129271,23.1955645 Z M88.3814132,16.5875857 C88.3814132,14.9658822 87.7652506,14.1447665 86.6129271,14.1447665 C85.4601067,14.1447665 84.8240679,14.9658822 84.8240679,16.5875857 L84.8240679,17.9894906 C84.8240679,19.6111942 85.4601067,20.4523371 86.6129271,20.4523371 C87.7652506,20.4523371 88.3814132,19.6111942 88.3814132,17.9894906 L88.3814132,16.5875857 Z M32.1243037,8.18199779 C30.6937132,8.18199779 29.1418778,8.28213385 28.1281909,8.44235155 C27.5120283,8.54248762 27.2715261,8.72273253 27.2715261,9.40315708 L27.2715261,22.5149732 C27.2715261,22.6942168 27.4345111,22.8268971 27.6074341,22.7868426 C28.2509265,22.6381406 29.6114534,22.3041868 30.0855011,22.1875283 C30.1853791,22.162995 30.2529582,22.0733732 30.2529582,21.9697324 L30.2529582,18.2076205 C30.2529582,18.079947 30.3573083,17.9778082 30.4835223,17.9833157 C30.9824152,18.0043442 31.6626787,18.0333837 32.0716318,18.0333837 C35.0326907,18.0333837 38.2034437,16.9323877 38.2034437,13.1877996 L38.2034437,13.0075547 C38.2034437,9.24344006 35.1251151,8.18199779 32.1243037,8.18199779 Z M34.7251063,13.1877996 C34.7251063,14.5496501 33.7909243,15.2105481 32.0219412,15.2105481 C31.8311296,15.2105481 31.0042791,15.195027 30.4666275,15.1780039 C30.3463764,15.1739984 30.2529582,15.0748637 30.2529582,14.9536991 L30.2529582,11.2992334 C30.2529582,11.1795708 30.3443888,11.0814375 30.4631491,11.0769314 C30.9898688,11.0559028 31.7789545,11.0253613 32.0219412,11.0253613 C33.6910463,11.0253613 34.7251063,11.5861233 34.7251063,13.0075547 L34.7251063,13.1877996 Z M46.0015618,11.3820125 C45.0579386,11.3950302 43.9120749,11.7344914 43.4251076,12.342818 L43.4251076,11.9422737 C43.4251076,11.6994438 43.2283331,11.5011744 42.987334,11.5011744 L40.4690177,11.5011744 C40.1818064,11.5011744 39.9467702,11.7379962 39.9467702,12.0273894 L39.9467702,22.5947482 C39.9467702,22.6668461 40.0277658,22.7739917 40.1385757,22.7940189 L43.3207575,22.026476 C43.3818769,22.0119563 43.4251076,21.9568814 43.4251076,21.893295 L43.4251076,14.7656101 C43.922013,14.3650658 44.8810403,14.004576 45.8544779,14.004576 L46.0134876,14.004576 C46.1923735,14.004576 46.4065397,13.8643855 46.4065397,13.6841406 L46.4065397,11.782056 C46.4065397,11.5577513 46.2241754,11.3785077 46.0015618,11.3820125 Z M63.3445522,11.3815118 C61.8617867,11.3880206 60.4247364,11.6258438 59.3076932,11.9022193 C58.7715323,12.0223826 58.8291734,12.1625731 58.8291734,12.4825078 L58.8291734,27.9169799 C58.8291734,28.0912167 58.9931521,28.2178888 59.1601123,28.1728276 L61.6163155,27.5069228 C61.7311006,27.4758806 61.8106054,27.3712384 61.8106054,27.2515758 L61.8106054,23.3602884 C61.8106054,23.201072 61.9482482,23.077404 62.1052703,23.0984326 C62.5450315,23.1560108 63.0379616,23.1955645 63.361447,23.1955645 C66.7195334,23.1955645 68.2703749,21.2133712 68.2703749,18.0695995 L68.2703749,16.3572728 C68.2703749,13.6280644 66.0536802,11.3694955 63.3445522,11.3815118 Z M65.2889429,18.0695995 C65.2889429,19.4710037 64.8914186,20.5324459 63.4802074,20.5324459 C63.0737388,20.5324459 62.5082606,20.4888868 62.0426602,20.4388187 C61.9094896,20.424299 61.8106054,20.3101439 61.8106054,20.1754609 L61.8106054,14.3991121 C61.8106054,14.2654304 61.9084958,14.1507746 62.0401757,14.1362549 C62.45857,14.090693 62.9813144,14.0621542 63.5527556,14.0646576 C64.5117829,14.0691637 65.2889429,14.8542305 65.2889429,15.8205435 L65.2889429,18.0695995 Z M74.7003301,11.3815118 C73.2175646,11.3880206 71.7805143,11.6258438 70.6634711,11.9022193 C70.1273102,12.0223826 70.1849512,12.1625731 70.1849512,12.4825078 L70.1849512,27.9169799 C70.1849512,28.0912167 70.34893,28.2178888 70.5158902,28.1728276 L72.9720933,27.5069228 C73.0868785,27.4758806 73.1663833,27.3712384 73.1663833,27.2515758 L73.1663833,23.3602884 C73.1663833,23.201072 73.3040261,23.077404 73.4610482,23.0984326 C73.9013063,23.1560108 74.3942364,23.1955645 74.7172249,23.1955645 C78.0758081,23.1955645 79.6261528,21.2133712 79.6261528,18.0695995 L79.6261528,16.3572728 C79.6261528,13.6280644 77.4094581,11.3694955 74.7003301,11.3815118 Z M76.6447208,18.0695995 C76.6447208,19.4710037 76.2471965,20.5324459 74.8359853,20.5324459 C74.4295167,20.5324459 73.8640384,20.4888868 73.3984381,20.4388187 C73.2652675,20.424299 73.1663833,20.3101439 73.1663833,20.1754609 L73.1663833,14.3991121 C73.1663833,14.2654304 73.2637768,14.1507746 73.3964505,14.1362549 C73.8143479,14.090693 74.3375892,14.0621542 74.9085335,14.0646576 C75.8675608,14.0691637 76.6447208,14.8542305 76.6447208,15.8205435 L76.6447208,18.0695995 L76.6447208,18.0695995 Z" id="Rectangle-171-Copy" filter="url(#filter-1)"></path>
                        <path d="M10.443564,0.127324266 C10.4144639,0.07507327 10.3753606,0.0330322388 10.3308011,0 L8.48506668,8.84903649 C9.29592882,9.09527681 9.88550896,9.84240599 9.88550896,10.7261685 C9.88550896,11.8102265 8.99825906,12.6891844 7.90397407,12.6891844 C6.80938597,12.6891844 5.92213607,11.8102265 5.92213607,10.7261685 C5.92213607,9.64181022 6.80938597,8.76285237 7.90397407,8.76285237 C7.9276179,8.76285237 7.95065548,8.76555501 7.97429931,8.76645589 L9.79396489,0.0414404451 L0.929347164,7.61393105 C0.843562496,7.68720256 0.792637323,7.79260543 0.78899981,7.90491504 L0.000265870628,31.5845259 C-0.014587305,32.026257 0.597121031,32.1640915 0.776571643,31.7592964 L5.63780385,20.7970976 C5.69145715,20.6760794 5.8014919,20.5889945 5.93244235,20.5640701 L13.3932834,19.142783 C13.5496965,19.113054 13.6739781,18.9950388 13.7109595,18.841589 L15.8101073,10.1270838 C15.8322355,10.0345936 15.8213229,9.93849978 15.7779759,9.85321655 C15.2347741,8.78927816 11.4426674,1.93208568 10.443564,0.127324266 Z" id="Rectangle-171-Copy-2" filter="url(#filter-2)"></path>
                    </g>
                </g>
            </g>
        </g>
    </g>
</svg>