<?xml version="1.0" encoding="UTF-8" standalone="no"?>
<svg width="116px" height="39px" viewBox="0 0 116 39" version="1.1" xmlns="http://www.w3.org/2000/svg" xmlns:xlink="http://www.w3.org/1999/xlink" xmlns:sketch="http://www.bohemiancoding.com/sketch/ns">
    <!-- Generator: Sketch 3.5.2 (25235) - http://www.bohemiancoding.com/sketch -->
    <title>Fill 1</title>
    <desc>Created with Sketch.</desc>
    <defs>
        <filter x="-50%" y="-50%" width="200%" height="200%" filterUnits="objectBoundingBox" id="filter-1">
            <feOffset dx="0" dy="2" in="SourceAlpha" result="shadowOffsetOuter1"></feOffset>
            <feGaussianBlur stdDeviation="2" in="shadowOffsetOuter1" result="shadowBlurOuter1"></feGaussianBlur>
            <feColorMatrix values="0 0 0 0 0   0 0 0 0 0   0 0 0 0 0  0 0 0 0.150311368 0" in="shadowBlurOuter1" type="matrix" result="shadowMatrixOuter1"></feColorMatrix>
            <feMerge>
                <feMergeNode in="shadowMatrixOuter1"></feMergeNode>
                <feMergeNode in="SourceGraphic"></feMergeNode>
            </feMerge>
        </filter>
    </defs>
    <g id="Web" stroke="none" stroke-width="1" fill="none" fill-rule="evenodd" sketch:type="MSPage">
        <g id="Login" sketch:type="MSArtboardGroup" transform="translate(-582.000000, -172.000000)" filter="url(#filter-1)" fill="#FFFFFF">
            <g id="top" sketch:type="MSLayerGroup" transform="translate(337.500000, 138.000000)">
                <path d="M263.16176,37.5917318 C261.770266,36.9267826 260.157301,36.7822285 258.324581,36.7822285 L248.5,36.7822285 L248.5,60.2646265 L253.650501,58.795276 L253.650501,52.087963 L258.241314,52.087963 C261.135896,52.087963 263.401258,51.3949533 265.039976,50.0276411 C266.676977,48.6603288 267.495907,46.7870769 267.495907,44.417239 C267.495907,42.8560541 267.120778,41.5550667 266.372239,40.3314582 C265.622841,39.1087001 264.553254,38.2558306 263.16176,37.5917318 L263.16176,37.5917318 Z M261.367669,47.0047585 C260.668917,47.6246407 259.654269,47.8363701 258.324581,47.8363701 L253.650501,47.8363701 L253.650501,40.1835028 L258.442184,40.1835028 C259.682596,40.1835028 260.655183,40.712401 261.359085,41.4428246 C262.063845,42.1732483 262.415796,43.1468631 262.415796,44.3313569 C262.415796,45.4835385 262.06642,46.3848762 261.367669,47.0047585 Z M275.341837,44.8194397 L275.207924,42.7344586 L270.818838,42.7344586 L270.818838,60.156636 L275.110923,58.7417059 L275.110923,48.8303925 C275.969339,47.6016821 277.064679,46.9869018 278.898258,46.9869018 C279.40129,46.9869018 280.07343,47.0311184 280.733553,47.1195515 L280.846006,42.5023216 C280.376452,42.3594681 279.896597,42.3161018 279.360086,42.3161018 C277.638102,42.3161018 276.314423,43.1698217 275.341837,44.8194397 Z M290.649985,42.287191 C288.994957,42.287191 287.522772,42.671535 286.231713,43.4410733 C284.940654,44.2106116 283.841022,45.3066723 283.13712,46.7292553 C282.43236,48.1526886 281.978257,49.7657429 281.978257,51.5709693 L281.978257,52.0360935 C281.978257,54.7256512 282.915649,56.8795082 284.586986,58.4959638 C286.257465,60.1124195 288.473898,60.9210724 291.13499,60.9210724 C292.644087,60.9210724 294.044165,60.6353654 295.285436,60.0656519 C296.525848,59.4950882 297.521611,58.7008906 298.248691,57.682209 L295.874309,55.0419697 C294.822749,56.3812215 293.367732,57.0512726 291.501534,57.0512726 C290.2946,57.0512726 289.297978,56.5835973 288.509951,55.875282 C287.722783,55.1669666 287.251512,54.6389187 287.09528,52.9382816 L298.288178,52.9382816 L298.288178,51.2053323 C298.288178,48.3601663 297.755101,46.1620928 296.330129,44.611962 C294.905157,43.0618312 293.130809,42.287191 290.649985,42.287191 Z M293.996093,49.5370072 L287.145068,49.5370072 C287.313318,48.6866886 287.695314,47.590628 288.29363,46.9460865 C288.891947,46.3006947 289.671389,46.0677074 290.632816,46.0677074 C291.660341,46.0677074 292.510174,46.4035832 293.069003,46.9877521 C293.626974,47.571921 293.996093,48.4417969 293.996093,49.509797 L293.996093,49.5370072 Z M310.651097,42.287191 C308.761722,42.287191 307.231165,43.0422739 306.057709,44.4367964 L305.890317,42.7344586 L301.721845,42.7344586 L301.721845,67 L306.013929,65.5842196 L306.013929,59.027413 C307.730763,60.2892857 308.737686,60.9210724 310.571264,60.9210724 C312.727608,60.9210724 314.649603,60.0877602 315.919202,58.4211358 C317.187942,56.7553617 318.031765,54.5377308 318.031765,51.7699438 L318.031765,51.5208005 C318.031765,48.6424721 317.25919,46.3831756 316.017919,44.7446117 C314.777507,43.1060478 312.886415,42.287191 310.651097,42.287191 Z M329.450426,42.287191 C327.561051,42.287191 326.030494,43.0422739 324.857038,44.4367964 L324.689647,42.7344586 L320.521174,42.7344586 L320.521174,67 L324.813259,65.5842196 L324.813259,59.027413 C326.530092,60.2892857 327.537015,60.9210724 329.370594,60.9210724 C331.526937,60.9210724 333.448932,60.0877602 334.718531,58.4211358 C335.987271,56.7553617 336.831095,54.5377308 336.831095,51.7699438 L336.831095,51.5208005 C336.831095,48.6424721 336.058519,46.3831756 334.817249,44.7446117 C333.576836,43.1060478 331.685744,42.287191 329.450426,42.287191 Z M309.296515,57.0512726 C307.776259,57.0512726 306.872346,56.4568999 306.013929,55.2690048 L306.013929,47.8882395 C306.872346,46.7343572 307.742781,46.1561405 309.263037,46.1561405 C310.403015,46.1561405 311.328388,46.6119113 311.927563,47.5226025 C312.525021,48.4332937 312.795423,49.7274786 312.795423,51.4043068 C312.795423,55.1686672 311.609949,57.0512726 309.296515,57.0512726 L309.296515,57.0512726 Z M328.095845,57.0512726 C326.575588,57.0512726 325.671675,56.4568999 324.813259,55.2690048 L324.813259,47.8882395 C325.671675,46.7343572 326.54211,46.1561405 328.062366,46.1561405 C329.202344,46.1561405 330.127717,46.6119113 330.726892,47.5226025 C331.32435,48.4332937 331.594752,49.7274786 331.594752,51.4043068 C331.594752,55.1686672 330.409278,57.0512726 328.095845,57.0512726 Z M356.455362,50.5573895 C356.276812,48.0115357 355.413244,45.9962806 353.86466,44.5124747 C352.316076,43.0286688 350.31854,42.287191 347.871194,42.287191 C346.150068,42.287191 344.637537,42.668984 343.335319,43.4325701 C342.033959,44.1970065 341.130905,45.2760608 340.437304,46.6714336 C339.744561,48.0659561 339.492187,49.6552015 339.492187,51.4374693 L339.492187,51.6534502 C339.492187,54.5105206 340.177203,56.7689668 341.736947,58.429639 C343.295832,60.0903112 345.336289,60.9210724 347.951885,60.9210724 C350.567481,60.9210724 352.62854,60.0877602 354.181416,58.4211358 C355.735151,56.7553617 356.5,54.5436831 356.5,51.7869502 L356.455362,50.5573895 Z M350.654181,55.7120208 C349.994059,56.6048553 349.078128,57.0512726 347.904672,57.0512726 C346.697738,57.0512726 345.768931,56.5997534 345.121685,55.6958647 C344.47358,54.7919761 344.149098,53.4858867 344.149098,51.778447 C344.149098,49.8601283 344.47358,48.4434975 345.121685,47.5285547 C345.768931,46.6136119 346.686578,46.1561405 347.871194,46.1561405 C349.066968,46.1561405 349.994059,46.6170132 350.654181,47.5370579 C351.313445,48.4571026 351.643077,49.7546888 351.643077,51.4289661 C351.643077,53.3923517 351.313445,54.8191863 350.654181,55.7120208 L350.654181,55.7120208 Z" id="Fill-1" sketch:type="MSShapeGroup"></path>
            </g>
        </g>
    </g>
</svg>