<?xml version="1.0" encoding="UTF-8" standalone="no"?>
<svg width="113px" height="100px" viewBox="0 0 138 119" version="1.1" xmlns="http://www.w3.org/2000/svg" xmlns:xlink="http://www.w3.org/1999/xlink" xmlns:sketch="http://www.bohemiancoding.com/sketch/ns">
    <!-- Generator: Sketch 3.3.3 (12081) - http://www.bohemiancoding.com/sketch -->
    <title>Group</title>
    <desc>Created with Sketch.</desc>
    <defs></defs>
    <g id="Web" stroke="none" stroke-width="1" fill="none" fill-rule="evenodd" sketch:type="MSPage">
        <g id="Signup-1-Copy" sketch:type="MSArtboardGroup" transform="translate(-182.000000, -30.000000)">
            <g id="Group" sketch:type="MSLayerGroup" transform="translate(130.000000, 30.000000)">
                <g transform="translate(53.000000, 0.000000)" sketch:type="MSShapeGroup">
                    <rect id="Rectangle-6" fill="#F6A623" x="32.3250756" y="29.8984375" width="69.3498488" height="88.203125" rx="2"></rect>
                    <rect id="Rectangle-9-Copy-3" fill="#D48F1E" x="44.1269022" y="44.7002641" width="44.9010553" height="32.0612196" rx="2"></rect>
                    <rect id="Rectangle-9-Copy" fill="#D48F1E" x="44.1269022" y="86.4229754" width="44.9010553" height="5.35182258" rx="2"></rect>
                    <rect id="Rectangle-9-Copy-4" fill="#D48F1E" transform="translate(46.600456, 29.675911) rotate(-90.000000) translate(-46.600456, -29.675911) " x="42" y="27" width="9.20091102" height="5.35182258" rx="2"></rect>
                    <rect id="Rectangle-9-Copy-5" fill="#D48F1E" transform="translate(60.600456, 29.675911) rotate(-90.000000) translate(-60.600456, -29.675911) " x="56" y="27" width="9.20091102" height="5.35182258" rx="2"></rect>
                    <rect id="Rectangle-9-Copy-6" fill="#D48F1E" transform="translate(73.600456, 29.675911) rotate(-90.000000) translate(-73.600456, -29.675911) " x="69" y="27" width="9.20091102" height="5.35182258" rx="2"></rect>
                    <rect id="Rectangle-9-Copy-7" fill="#D48F1E" transform="translate(86.600456, 29.675911) rotate(-90.000000) translate(-86.600456, -29.675911) " x="82" y="27" width="9.20091102" height="5.35182258" rx="2"></rect>
                    <rect id="Rectangle-9-Copy-2" fill="#D48F1E" x="44.1269022" y="98.8459507" width="44.9010553" height="5.35182258" rx="2"></rect>
                    <g transform="translate(7.000000, 7.000000)" stroke="#1DAF1B" stroke-width="3" stroke-linecap="round">
                        <path d="M104.5,31.5 L115.5,21.5" id="Line"></path>
                        <path d="M104.5,70.5 L119.5,70.5" id="Line-Copy-4"></path>
                        <path d="M5.5,23.5 L14.5,31.5" id="Line-Copy"></path>
                        <path d="M0.442738444,69.7801099 L14.7801099,69.7801099" id="Line-Copy-2"></path>
                        <path d="M59.7801099,0.480502367 L59.7801099,13.7801099" id="Line-Copy-3"></path>
                    </g>
                    <g id="Group-Copy" transform="translate(68.280144, 40.232410) rotate(1.000000) translate(-68.280144, -40.232410) translate(1.280144, 1.232410)" stroke="#1DAF1B" stroke-width="3" stroke-linecap="round">
                        <path d="M125.657987,22.0401282 L125.102225,22.5442205" id="Line"></path>
                        <path d="M133.95346,74.6631707 L133.20314,74.6631707" id="Line-Copy-4"></path>
                        <path d="M6.85917626,26.1906585 L6.29781866,25.6928055" id="Line-Copy"></path>
                        <path d="M1.35060663,76.6484243 L0.600286685,76.6484243" id="Line-Copy-2"></path>
                        <path d="M64.696726,1.9412883 L64.696726,1.19096835" id="Line-Copy-3"></path>
                    </g>
                </g>
            </g>
        </g>
    </g>
</svg>