<?xml version="1.0" encoding="UTF-8" standalone="no"?>
<svg width="34px" height="40px" viewBox="0 0 34 40" version="1.1" xmlns="http://www.w3.org/2000/svg" xmlns:xlink="http://www.w3.org/1999/xlink" xmlns:sketch="http://www.bohemiancoding.com/sketch/ns">
    <!-- Generator: Sketch 3.5.2 (25235) - http://www.bohemiancoding.com/sketch -->
    <title>Fill 149 + 31 Copy</title>
    <desc>Created with Sketch.</desc>
    <defs></defs>
    <g id="Web" stroke="none" stroke-width="1" fill="none" fill-rule="evenodd" sketch:type="MSPage">
        <g id="Quiz" sketch:type="MSArtboardGroup" transform="translate(-302.000000, -396.000000)" fill="#23B1F7">
            <g id="Weekly-" sketch:type="MSLayerGroup" transform="translate(267.000000, 371.000000)">
                <g id="Fill-149-+-31-Copy" transform="translate(35.000000, 25.000000)">
                    <path d="M31.5637792,2.52738239 L27.215155,2.52738239 L27.215155,0.695609832 C27.215155,0.311633205 26.906768,0 26.5267911,0 C26.1468143,0 25.8384272,0.311633205 25.8384272,0.695609832 L25.8384272,2.52738239 L17.3559484,2.52738239 L17.3559484,0.695609832 C17.3559484,0.311633205 17.0475614,0 16.6675845,0 C16.2876076,0 15.9792206,0.311633205 15.9792206,0.695609832 L15.9792206,2.52738239 L7.49398829,2.52738239 L7.49398829,0.695609832 C7.49398829,0.311633205 7.18651908,0 6.80654221,0 C6.42656534,0 6.11817831,0.311633205 6.11817831,0.695609832 L6.11817831,2.52738239 L1.76680067,2.52738239 C0.792995209,2.52738239 0,3.3296524 0,4.31463592 L0,37.7948009 C0.0284523744,38.7677272 0.80492685,39.5291881 1.76680067,39.5291881 L31.5637792,39.5291881 C32.5118857,39.5291881 33.304881,38.7501051 33.3314977,37.7734689 L33.3333333,4.31463592 C33.3333333,3.3296524 32.5394203,2.52738239 31.5637792,2.52738239 L31.5637792,2.52738239 Z M26.5267911,7.44395269 C26.6718065,7.44395269 26.8012189,7.38737642 26.9122749,7.30854064 C26.8131505,7.40778098 26.679149,7.4708496 26.5304624,7.4708496 C26.431338,7.4708496 26.3432274,7.43653285 26.2633772,7.39015886 C26.3459809,7.42354813 26.4331736,7.44395269 26.5267911,7.44395269 L26.5267911,7.44395269 Z M16.6675845,7.44395269 C16.7621198,7.44395269 16.852066,7.42447561 16.9355875,7.38923138 C16.8548195,7.43653285 16.7676267,7.4708496 16.6694201,7.4708496 C16.5684601,7.4708496 16.4812673,7.43653285 16.4004993,7.38923138 C16.4840208,7.42447561 16.5721314,7.44395269 16.6675845,7.44395269 L16.6675845,7.44395269 Z M6.80654221,7.44395269 C6.90107752,7.44395269 6.99194155,7.42447561 7.0736274,7.38923138 C6.99469501,7.43653285 6.90658443,7.4708496 6.80837785,7.4708496 C6.70925345,7.4708496 6.62114287,7.43653285 6.54129266,7.39015886 C6.6229785,7.42447561 6.71108908,7.44395269 6.80654221,7.44395269 L6.80654221,7.44395269 Z M31.9547699,37.7539918 C31.949263,37.9663847 31.7739597,38.1379684 31.5637792,38.1379684 L1.76680067,38.1379684 C1.55845586,38.1379684 1.38131689,37.9654572 1.37672779,37.7734689 L1.37672779,4.31463592 C1.37672779,4.09667817 1.55203113,3.91860206 1.76680067,3.91860206 L6.11817831,3.91860206 L6.11817831,5.11968837 C5.39860859,5.39978726 4.88830149,6.10003449 4.88830149,6.92270905 C4.88830149,7.99209323 5.74829745,8.86206927 6.80837785,8.86206927 C7.86386916,8.86206927 8.72386512,7.99209323 8.72386512,6.92270905 C8.72386512,6.09910701 8.21172238,5.3979323 7.49398829,5.11876089 L7.49398829,3.91860206 L15.9792206,3.91860206 L15.9792206,5.11876089 C15.2605687,5.39885978 14.7475081,6.09910701 14.7475081,6.92270905 C14.7475081,7.99209323 15.6093397,8.86206927 16.6694201,8.86206927 C17.7249114,8.86206927 18.5858252,7.99209323 18.5858252,6.92270905 C18.5858252,6.09910701 18.0727647,5.3979323 17.3559484,5.11876089 L17.3559484,3.91860206 L25.8384272,3.91860206 L25.8384272,5.11968837 C25.121611,5.40071474 24.610386,6.10003449 24.610386,6.92270905 C24.610386,7.99209323 25.4712998,8.86206927 26.5304624,8.86206927 C27.5859537,8.86206927 28.4459497,7.99209323 28.4459497,6.92270905 C28.4459497,6.09817953 27.9319713,5.39700482 27.215155,5.11783341 L27.215155,3.91860206 L31.5637792,3.91860206 C31.7813022,3.91860206 31.9566055,4.09667817 31.9566055,4.31463592 L31.9547699,37.7539918 L31.9547699,37.7539918 Z M27.6547901,11.4052188 L5.67487196,11.4052188 C4.70014869,11.4052188 3.90715348,12.2074888 3.90715348,13.1943273 L3.90715348,33.4013292 C3.94111276,34.373328 4.7157516,35.1338614 5.67487196,35.1338614 L27.6547901,35.1338614 C28.6175817,35.1338614 29.3931384,34.3724005 29.4234264,33.3781422 L29.4234264,13.1943273 C29.4234264,12.2074888 28.6295134,11.4052188 27.6547901,11.4052188 L27.6547901,11.4052188 Z M27.6547901,33.7426418 L5.67487196,33.7426418 C5.46285588,33.7426418 5.290306,33.5719855 5.28388127,33.3781422 L5.28388127,13.1943273 C5.28388127,12.9745146 5.45918461,12.7964385 5.67487196,12.7964385 L27.6547901,12.7964385 C27.8713953,12.7964385 28.0466986,12.9745146 28.0466986,13.1943273 L28.0466986,33.3568102 C28.0393561,33.5701305 27.8649705,33.7426418 27.6547901,33.7426418 Z" id="Fill-149" sketch:type="MSShapeGroup"></path>
                    <text id="7" sketch:type="MSTextLayer" font-family=".Helvetica Neue DeskInterface" font-size="14.5833333" font-weight="normal" sketch:alignment="middle">
                        <tspan x="12.9858994" y="29.8421053">7</tspan>
                    </text>
                </g>
            </g>
        </g>
    </g>
</svg>